%TF.GenerationSoftware,KiCad,Pcbnew,7.0.2*%
%TF.CreationDate,2024-03-05T23:41:02-06:00*%
%TF.ProjectId,AES_Test_Board,4145535f-5465-4737-945f-426f6172642e,rev?*%
%TF.SameCoordinates,Original*%
%TF.FileFunction,Soldermask,Top*%
%TF.FilePolarity,Negative*%
%FSLAX46Y46*%
G04 Gerber Fmt 4.6, Leading zero omitted, Abs format (unit mm)*
G04 Created by KiCad (PCBNEW 7.0.2) date 2024-03-05 23:41:02*
%MOMM*%
%LPD*%
G01*
G04 APERTURE LIST*
G04 Aperture macros list*
%AMRoundRect*
0 Rectangle with rounded corners*
0 $1 Rounding radius*
0 $2 $3 $4 $5 $6 $7 $8 $9 X,Y pos of 4 corners*
0 Add a 4 corners polygon primitive as box body*
4,1,4,$2,$3,$4,$5,$6,$7,$8,$9,$2,$3,0*
0 Add four circle primitives for the rounded corners*
1,1,$1+$1,$2,$3*
1,1,$1+$1,$4,$5*
1,1,$1+$1,$6,$7*
1,1,$1+$1,$8,$9*
0 Add four rect primitives between the rounded corners*
20,1,$1+$1,$2,$3,$4,$5,0*
20,1,$1+$1,$4,$5,$6,$7,0*
20,1,$1+$1,$6,$7,$8,$9,0*
20,1,$1+$1,$8,$9,$2,$3,0*%
%AMRotRect*
0 Rectangle, with rotation*
0 The origin of the aperture is its center*
0 $1 length*
0 $2 width*
0 $3 Rotation angle, in degrees counterclockwise*
0 Add horizontal line*
21,1,$1,$2,0,0,$3*%
%AMFreePoly0*
4,1,5,0.110000,-0.125000,-0.110000,-0.125000,-0.110000,0.125000,0.360000,0.125000,0.110000,-0.125000,0.110000,-0.125000,$1*%
%AMFreePoly1*
4,1,6,0.290000,-0.055000,0.290000,-0.125000,-0.110000,-0.125000,-0.110000,0.125000,0.110000,0.125000,0.290000,-0.055000,0.290000,-0.055000,$1*%
%AMFreePoly2*
4,1,7,0.110000,-0.125000,-0.110000,-0.125000,-0.290000,-0.125000,-0.290000,-0.055000,-0.110000,0.125000,0.110000,0.125000,0.110000,-0.125000,0.110000,-0.125000,$1*%
%AMFreePoly3*
4,1,6,0.110000,-0.125000,-0.110000,-0.125000,-0.290000,0.055000,-0.290000,0.125000,0.110000,0.125000,0.110000,-0.125000,0.110000,-0.125000,$1*%
G04 Aperture macros list end*
%ADD10RoundRect,0.237500X0.300000X0.237500X-0.300000X0.237500X-0.300000X-0.237500X0.300000X-0.237500X0*%
%ADD11RoundRect,0.126000X0.276000X-0.771000X0.276000X0.771000X-0.276000X0.771000X-0.276000X-0.771000X0*%
%ADD12RoundRect,0.126000X-0.276000X0.771000X-0.276000X-0.771000X0.276000X-0.771000X0.276000X0.771000X0*%
%ADD13C,2.000000*%
%ADD14RoundRect,0.126000X-0.350018X-0.740341X0.740341X0.350018X0.350018X0.740341X-0.740341X-0.350018X0*%
%ADD15RoundRect,0.126000X0.350018X0.740341X-0.740341X-0.350018X-0.350018X-0.740341X0.740341X0.350018X0*%
%ADD16RoundRect,0.062500X0.062500X-0.375000X0.062500X0.375000X-0.062500X0.375000X-0.062500X-0.375000X0*%
%ADD17RoundRect,0.062500X0.375000X-0.062500X0.375000X0.062500X-0.375000X0.062500X-0.375000X-0.062500X0*%
%ADD18R,5.900000X5.900000*%
%ADD19RoundRect,0.126000X-0.771000X-0.276000X0.771000X-0.276000X0.771000X0.276000X-0.771000X0.276000X0*%
%ADD20RoundRect,0.126000X0.771000X0.276000X-0.771000X0.276000X-0.771000X-0.276000X0.771000X-0.276000X0*%
%ADD21C,3.200000*%
%ADD22RoundRect,0.237500X-0.237500X0.300000X-0.237500X-0.300000X0.237500X-0.300000X0.237500X0.300000X0*%
%ADD23RoundRect,0.237500X0.237500X-0.300000X0.237500X0.300000X-0.237500X0.300000X-0.237500X-0.300000X0*%
%ADD24FreePoly0,90.000000*%
%ADD25FreePoly1,90.000000*%
%ADD26FreePoly2,90.000000*%
%ADD27FreePoly3,90.000000*%
%ADD28RotRect,0.480000X0.480000X135.000000*%
%ADD29RoundRect,0.126000X-0.740341X0.350018X0.350018X-0.740341X0.740341X-0.350018X-0.350018X0.740341X0*%
%ADD30RoundRect,0.126000X0.740341X-0.350018X-0.350018X0.740341X-0.740341X0.350018X0.350018X-0.740341X0*%
%ADD31R,1.700000X1.700000*%
%ADD32O,1.700000X1.700000*%
%ADD33R,1.524000X1.524000*%
%ADD34C,1.524000*%
G04 APERTURE END LIST*
D10*
%TO.C,C8*%
X96862500Y-85500000D03*
X95137500Y-85500000D03*
%TD*%
D11*
%TO.C,RN5*%
X113555000Y-72745000D03*
X114825000Y-72745000D03*
X116095000Y-72745000D03*
X117365000Y-72745000D03*
X118635000Y-72745000D03*
X119905000Y-72745000D03*
X121175000Y-72745000D03*
X122445000Y-72745000D03*
D12*
X122445000Y-65755000D03*
X121175000Y-65755000D03*
X119905000Y-65755000D03*
X118635000Y-65755000D03*
X117365000Y-65755000D03*
X116095000Y-65755000D03*
X114825000Y-65755000D03*
X113555000Y-65755000D03*
%TD*%
D13*
%TO.C,SU1*%
X132000000Y-60000000D03*
%TD*%
%TO.C,KRDY1*%
X145000000Y-84000000D03*
%TD*%
D14*
%TO.C,RN4*%
X125385572Y-74078249D03*
X126283598Y-74976274D03*
X127181623Y-75874300D03*
X128079649Y-76772325D03*
X128977675Y-77670351D03*
X129875700Y-78568377D03*
X130773726Y-79466402D03*
X131671751Y-80364428D03*
D15*
X136614428Y-75421751D03*
X135716402Y-74523726D03*
X134818377Y-73625700D03*
X133920351Y-72727675D03*
X133022325Y-71829649D03*
X132124300Y-70931623D03*
X131226274Y-70033598D03*
X130328249Y-69135572D03*
%TD*%
D16*
%TO.C,U1*%
X116750000Y-91937500D03*
X117250000Y-91937500D03*
X117750000Y-91937500D03*
X118250000Y-91937500D03*
X118750000Y-91937500D03*
X119250000Y-91937500D03*
X119750000Y-91937500D03*
X120250000Y-91937500D03*
X120750000Y-91937500D03*
X121250000Y-91937500D03*
X121750000Y-91937500D03*
X122250000Y-91937500D03*
X122750000Y-91937500D03*
X123250000Y-91937500D03*
D17*
X123937500Y-91250000D03*
X123937500Y-90750000D03*
X123937500Y-90250000D03*
X123937500Y-89750000D03*
X123937500Y-89250000D03*
X123937500Y-88750000D03*
X123937500Y-88250000D03*
X123937500Y-87750000D03*
X123937500Y-87250000D03*
X123937500Y-86750000D03*
X123937500Y-86250000D03*
X123937500Y-85750000D03*
X123937500Y-85250000D03*
X123937500Y-84750000D03*
D16*
X123250000Y-84062500D03*
X122750000Y-84062500D03*
X122250000Y-84062500D03*
X121750000Y-84062500D03*
X121250000Y-84062500D03*
X120750000Y-84062500D03*
X120250000Y-84062500D03*
X119750000Y-84062500D03*
X119250000Y-84062500D03*
X118750000Y-84062500D03*
X118250000Y-84062500D03*
X117750000Y-84062500D03*
X117250000Y-84062500D03*
X116750000Y-84062500D03*
D17*
X116062500Y-84750000D03*
X116062500Y-85250000D03*
X116062500Y-85750000D03*
X116062500Y-86250000D03*
X116062500Y-86750000D03*
X116062500Y-87250000D03*
X116062500Y-87750000D03*
X116062500Y-88250000D03*
X116062500Y-88750000D03*
X116062500Y-89250000D03*
X116062500Y-89750000D03*
X116062500Y-90250000D03*
X116062500Y-90750000D03*
X116062500Y-91250000D03*
D18*
X120000000Y-88000000D03*
%TD*%
D13*
%TO.C,CLKOUT1*%
X133000000Y-116000000D03*
%TD*%
D19*
%TO.C,RN3*%
X132510000Y-83555000D03*
X132510000Y-84825000D03*
X132510000Y-86095000D03*
X132510000Y-87365000D03*
X132510000Y-88635000D03*
X132510000Y-89905000D03*
X132510000Y-91175000D03*
X132510000Y-92445000D03*
D20*
X139500000Y-92445000D03*
X139500000Y-91175000D03*
X139500000Y-89905000D03*
X139500000Y-88635000D03*
X139500000Y-87365000D03*
X139500000Y-86095000D03*
X139500000Y-84825000D03*
X139500000Y-83555000D03*
%TD*%
D13*
%TO.C,VDDPST1*%
X108000000Y-116000000D03*
%TD*%
D21*
%TO.C,H1*%
X142500000Y-116000000D03*
%TD*%
D22*
%TO.C,C1*%
X109500000Y-90637500D03*
X109500000Y-92362500D03*
%TD*%
D13*
%TO.C,BSY1*%
X145000000Y-106000000D03*
%TD*%
%TO.C,SE1*%
X126000000Y-60000000D03*
%TD*%
%TO.C,SO1*%
X145000000Y-98000000D03*
%TD*%
%TO.C,CLK1*%
X114000000Y-60000000D03*
%TD*%
%TO.C,VDDD1*%
X117000000Y-116000000D03*
%TD*%
D12*
%TO.C,RN1*%
X122445000Y-102005000D03*
X121175000Y-102005000D03*
X119905000Y-102005000D03*
X118635000Y-102005000D03*
X117365000Y-102005000D03*
X116095000Y-102005000D03*
X114825000Y-102005000D03*
X113555000Y-102005000D03*
D11*
X113555000Y-108995000D03*
X114825000Y-108995000D03*
X116095000Y-108995000D03*
X117365000Y-108995000D03*
X118635000Y-108995000D03*
X119905000Y-108995000D03*
X121175000Y-108995000D03*
X122445000Y-108995000D03*
%TD*%
D13*
%TO.C,SCLK1*%
X120000000Y-60000000D03*
%TD*%
D23*
%TO.C,C4*%
X109500000Y-87862500D03*
X109500000Y-86137500D03*
%TD*%
D24*
%TO.C,U3*%
X95675000Y-89540000D03*
D25*
X96325000Y-89540000D03*
D26*
X96325000Y-88460000D03*
D27*
X95675000Y-88460000D03*
D28*
X96000000Y-89000000D03*
%TD*%
D13*
%TO.C,EN1*%
X145000000Y-70000000D03*
%TD*%
D23*
%TO.C,C6*%
X104500000Y-87862500D03*
X104500000Y-86137500D03*
%TD*%
D13*
%TO.C,RSTN1*%
X145000000Y-77000000D03*
%TD*%
D21*
%TO.C,H4*%
X92500000Y-116000000D03*
%TD*%
D22*
%TO.C,C2*%
X107000000Y-90637500D03*
X107000000Y-92362500D03*
%TD*%
%TO.C,C3*%
X104500000Y-90637500D03*
X104500000Y-92362500D03*
%TD*%
D13*
%TO.C,DRDY1*%
X145000000Y-91000000D03*
%TD*%
D21*
%TO.C,H2*%
X142500000Y-60000000D03*
%TD*%
D23*
%TO.C,C5*%
X107000000Y-87862500D03*
X107000000Y-86137500D03*
%TD*%
D13*
%TO.C,SI1*%
X108000000Y-60000000D03*
%TD*%
D21*
%TO.C,H3*%
X92500000Y-60000000D03*
%TD*%
D10*
%TO.C,C7*%
X96862500Y-92500000D03*
X95137500Y-92500000D03*
%TD*%
D29*
%TO.C,RN2*%
X131671751Y-95385572D03*
X130773726Y-96283598D03*
X129875700Y-97181623D03*
X128977675Y-98079649D03*
X128079649Y-98977675D03*
X127181623Y-99875700D03*
X126283598Y-100773726D03*
X125385572Y-101671751D03*
D30*
X130328249Y-106614428D03*
X131226274Y-105716402D03*
X132124300Y-104818377D03*
X133022325Y-103920351D03*
X133920351Y-103022325D03*
X134818377Y-102124300D03*
X135716402Y-101226274D03*
X136614428Y-100328249D03*
%TD*%
D31*
%TO.C,J3*%
X101000000Y-92500000D03*
D32*
X101000000Y-89960000D03*
%TD*%
D13*
%TO.C,VSS1*%
X125000000Y-116000000D03*
%TD*%
D33*
%TO.C,J2*%
X87500000Y-95250000D03*
D34*
X87500000Y-97790000D03*
X87500000Y-100330000D03*
X87500000Y-102870000D03*
X87500000Y-105410000D03*
X87500000Y-107950000D03*
X90040000Y-95250000D03*
X90040000Y-97790000D03*
X90040000Y-100330000D03*
X90040000Y-102870000D03*
X90040000Y-105410000D03*
X90040000Y-107950000D03*
%TD*%
D33*
%TO.C,J1*%
X87500000Y-72390000D03*
D34*
X87500000Y-74930000D03*
X87500000Y-77470000D03*
X87500000Y-80010000D03*
X87500000Y-82550000D03*
X87500000Y-85090000D03*
X90040000Y-72390000D03*
X90040000Y-74930000D03*
X90040000Y-77470000D03*
X90040000Y-80010000D03*
X90040000Y-82550000D03*
X90040000Y-85090000D03*
%TD*%
M02*
