%TF.GenerationSoftware,KiCad,Pcbnew,7.0.2*%
%TF.CreationDate,2024-02-27T00:06:23-06:00*%
%TF.ProjectId,AES_Test_Board,4145535f-5465-4737-945f-426f6172642e,rev?*%
%TF.SameCoordinates,Original*%
%TF.FileFunction,Legend,Bot*%
%TF.FilePolarity,Positive*%
%FSLAX46Y46*%
G04 Gerber Fmt 4.6, Leading zero omitted, Abs format (unit mm)*
G04 Created by KiCad (PCBNEW 7.0.2) date 2024-02-27 00:06:23*
%MOMM*%
%LPD*%
G01*
G04 APERTURE LIST*
%ADD10C,0.254000*%
%ADD11C,0.150000*%
%ADD12C,0.304800*%
%ADD13R,1.524000X1.524000*%
%ADD14C,1.524000*%
G04 APERTURE END LIST*
D10*
%TO.C,J2*%
X89870666Y-92418020D02*
X89870666Y-93143735D01*
X89870666Y-93143735D02*
X89919047Y-93288878D01*
X89919047Y-93288878D02*
X90015809Y-93385640D01*
X90015809Y-93385640D02*
X90160952Y-93434020D01*
X90160952Y-93434020D02*
X90257714Y-93434020D01*
X89435238Y-92514782D02*
X89386857Y-92466401D01*
X89386857Y-92466401D02*
X89290095Y-92418020D01*
X89290095Y-92418020D02*
X89048190Y-92418020D01*
X89048190Y-92418020D02*
X88951428Y-92466401D01*
X88951428Y-92466401D02*
X88903047Y-92514782D01*
X88903047Y-92514782D02*
X88854666Y-92611544D01*
X88854666Y-92611544D02*
X88854666Y-92708306D01*
X88854666Y-92708306D02*
X88903047Y-92853449D01*
X88903047Y-92853449D02*
X89483619Y-93434020D01*
X89483619Y-93434020D02*
X88854666Y-93434020D01*
D11*
X93437142Y-99792619D02*
X92818095Y-99792619D01*
X92818095Y-99792619D02*
X93151428Y-100173571D01*
X93151428Y-100173571D02*
X93008571Y-100173571D01*
X93008571Y-100173571D02*
X92913333Y-100221190D01*
X92913333Y-100221190D02*
X92865714Y-100268809D01*
X92865714Y-100268809D02*
X92818095Y-100364047D01*
X92818095Y-100364047D02*
X92818095Y-100602142D01*
X92818095Y-100602142D02*
X92865714Y-100697380D01*
X92865714Y-100697380D02*
X92913333Y-100745000D01*
X92913333Y-100745000D02*
X93008571Y-100792619D01*
X93008571Y-100792619D02*
X93294285Y-100792619D01*
X93294285Y-100792619D02*
X93389523Y-100745000D01*
X93389523Y-100745000D02*
X93437142Y-100697380D01*
X92389523Y-100792619D02*
X92389523Y-99792619D01*
X92389523Y-99792619D02*
X91818095Y-100792619D01*
X91818095Y-100792619D02*
X91818095Y-99792619D01*
X85785332Y-107412619D02*
X85451999Y-108412619D01*
X85451999Y-108412619D02*
X85118666Y-107412619D01*
X84213904Y-108317380D02*
X84261523Y-108365000D01*
X84261523Y-108365000D02*
X84404380Y-108412619D01*
X84404380Y-108412619D02*
X84499618Y-108412619D01*
X84499618Y-108412619D02*
X84642475Y-108365000D01*
X84642475Y-108365000D02*
X84737713Y-108269761D01*
X84737713Y-108269761D02*
X84785332Y-108174523D01*
X84785332Y-108174523D02*
X84832951Y-107984047D01*
X84832951Y-107984047D02*
X84832951Y-107841190D01*
X84832951Y-107841190D02*
X84785332Y-107650714D01*
X84785332Y-107650714D02*
X84737713Y-107555476D01*
X84737713Y-107555476D02*
X84642475Y-107460238D01*
X84642475Y-107460238D02*
X84499618Y-107412619D01*
X84499618Y-107412619D02*
X84404380Y-107412619D01*
X84404380Y-107412619D02*
X84261523Y-107460238D01*
X84261523Y-107460238D02*
X84213904Y-107507857D01*
X83213904Y-108317380D02*
X83261523Y-108365000D01*
X83261523Y-108365000D02*
X83404380Y-108412619D01*
X83404380Y-108412619D02*
X83499618Y-108412619D01*
X83499618Y-108412619D02*
X83642475Y-108365000D01*
X83642475Y-108365000D02*
X83737713Y-108269761D01*
X83737713Y-108269761D02*
X83785332Y-108174523D01*
X83785332Y-108174523D02*
X83832951Y-107984047D01*
X83832951Y-107984047D02*
X83832951Y-107841190D01*
X83832951Y-107841190D02*
X83785332Y-107650714D01*
X83785332Y-107650714D02*
X83737713Y-107555476D01*
X83737713Y-107555476D02*
X83642475Y-107460238D01*
X83642475Y-107460238D02*
X83499618Y-107412619D01*
X83499618Y-107412619D02*
X83404380Y-107412619D01*
X83404380Y-107412619D02*
X83261523Y-107460238D01*
X83261523Y-107460238D02*
X83213904Y-107507857D01*
X85213904Y-104920238D02*
X85309142Y-104872619D01*
X85309142Y-104872619D02*
X85451999Y-104872619D01*
X85451999Y-104872619D02*
X85594856Y-104920238D01*
X85594856Y-104920238D02*
X85690094Y-105015476D01*
X85690094Y-105015476D02*
X85737713Y-105110714D01*
X85737713Y-105110714D02*
X85785332Y-105301190D01*
X85785332Y-105301190D02*
X85785332Y-105444047D01*
X85785332Y-105444047D02*
X85737713Y-105634523D01*
X85737713Y-105634523D02*
X85690094Y-105729761D01*
X85690094Y-105729761D02*
X85594856Y-105825000D01*
X85594856Y-105825000D02*
X85451999Y-105872619D01*
X85451999Y-105872619D02*
X85356761Y-105872619D01*
X85356761Y-105872619D02*
X85213904Y-105825000D01*
X85213904Y-105825000D02*
X85166285Y-105777380D01*
X85166285Y-105777380D02*
X85166285Y-105444047D01*
X85166285Y-105444047D02*
X85356761Y-105444047D01*
X84737713Y-105872619D02*
X84737713Y-104872619D01*
X84737713Y-104872619D02*
X84166285Y-105872619D01*
X84166285Y-105872619D02*
X84166285Y-104872619D01*
X83690094Y-105872619D02*
X83690094Y-104872619D01*
X83690094Y-104872619D02*
X83451999Y-104872619D01*
X83451999Y-104872619D02*
X83309142Y-104920238D01*
X83309142Y-104920238D02*
X83213904Y-105015476D01*
X83213904Y-105015476D02*
X83166285Y-105110714D01*
X83166285Y-105110714D02*
X83118666Y-105301190D01*
X83118666Y-105301190D02*
X83118666Y-105444047D01*
X83118666Y-105444047D02*
X83166285Y-105634523D01*
X83166285Y-105634523D02*
X83213904Y-105729761D01*
X83213904Y-105729761D02*
X83309142Y-105825000D01*
X83309142Y-105825000D02*
X83451999Y-105872619D01*
X83451999Y-105872619D02*
X83690094Y-105872619D01*
X92913333Y-102665952D02*
X92913333Y-103332619D01*
X93151428Y-102285000D02*
X93389523Y-102999285D01*
X93389523Y-102999285D02*
X92770476Y-102999285D01*
X92389523Y-103332619D02*
X92389523Y-102332619D01*
X92389523Y-102332619D02*
X91818095Y-103332619D01*
X91818095Y-103332619D02*
X91818095Y-102332619D01*
X85793332Y-99792619D02*
X85174285Y-99792619D01*
X85174285Y-99792619D02*
X85507618Y-100173571D01*
X85507618Y-100173571D02*
X85364761Y-100173571D01*
X85364761Y-100173571D02*
X85269523Y-100221190D01*
X85269523Y-100221190D02*
X85221904Y-100268809D01*
X85221904Y-100268809D02*
X85174285Y-100364047D01*
X85174285Y-100364047D02*
X85174285Y-100602142D01*
X85174285Y-100602142D02*
X85221904Y-100697380D01*
X85221904Y-100697380D02*
X85269523Y-100745000D01*
X85269523Y-100745000D02*
X85364761Y-100792619D01*
X85364761Y-100792619D02*
X85650475Y-100792619D01*
X85650475Y-100792619D02*
X85745713Y-100745000D01*
X85745713Y-100745000D02*
X85793332Y-100697380D01*
X84745713Y-100792619D02*
X84745713Y-99792619D01*
X84745713Y-99792619D02*
X84364761Y-99792619D01*
X84364761Y-99792619D02*
X84269523Y-99840238D01*
X84269523Y-99840238D02*
X84221904Y-99887857D01*
X84221904Y-99887857D02*
X84174285Y-99983095D01*
X84174285Y-99983095D02*
X84174285Y-100125952D01*
X84174285Y-100125952D02*
X84221904Y-100221190D01*
X84221904Y-100221190D02*
X84269523Y-100268809D01*
X84269523Y-100268809D02*
X84364761Y-100316428D01*
X84364761Y-100316428D02*
X84745713Y-100316428D01*
X92818095Y-95712619D02*
X93389523Y-95712619D01*
X93103809Y-95712619D02*
X93103809Y-94712619D01*
X93103809Y-94712619D02*
X93199047Y-94855476D01*
X93199047Y-94855476D02*
X93294285Y-94950714D01*
X93294285Y-94950714D02*
X93389523Y-94998333D01*
X92389523Y-95712619D02*
X92389523Y-94712619D01*
X92389523Y-94712619D02*
X91818095Y-95712619D01*
X91818095Y-95712619D02*
X91818095Y-94712619D01*
X87962619Y-109720095D02*
X86962619Y-109720095D01*
X86962619Y-109720095D02*
X86962619Y-110101047D01*
X86962619Y-110101047D02*
X87010238Y-110196285D01*
X87010238Y-110196285D02*
X87057857Y-110243904D01*
X87057857Y-110243904D02*
X87153095Y-110291523D01*
X87153095Y-110291523D02*
X87295952Y-110291523D01*
X87295952Y-110291523D02*
X87391190Y-110243904D01*
X87391190Y-110243904D02*
X87438809Y-110196285D01*
X87438809Y-110196285D02*
X87486428Y-110101047D01*
X87486428Y-110101047D02*
X87486428Y-109720095D01*
X85269523Y-102665952D02*
X85269523Y-103332619D01*
X85507618Y-102285000D02*
X85745713Y-102999285D01*
X85745713Y-102999285D02*
X85126666Y-102999285D01*
X84745713Y-103332619D02*
X84745713Y-102332619D01*
X84745713Y-102332619D02*
X84364761Y-102332619D01*
X84364761Y-102332619D02*
X84269523Y-102380238D01*
X84269523Y-102380238D02*
X84221904Y-102427857D01*
X84221904Y-102427857D02*
X84174285Y-102523095D01*
X84174285Y-102523095D02*
X84174285Y-102665952D01*
X84174285Y-102665952D02*
X84221904Y-102761190D01*
X84221904Y-102761190D02*
X84269523Y-102808809D01*
X84269523Y-102808809D02*
X84364761Y-102856428D01*
X84364761Y-102856428D02*
X84745713Y-102856428D01*
X85174285Y-95712619D02*
X85745713Y-95712619D01*
X85459999Y-95712619D02*
X85459999Y-94712619D01*
X85459999Y-94712619D02*
X85555237Y-94855476D01*
X85555237Y-94855476D02*
X85650475Y-94950714D01*
X85650475Y-94950714D02*
X85745713Y-94998333D01*
X84745713Y-95712619D02*
X84745713Y-94712619D01*
X84745713Y-94712619D02*
X84364761Y-94712619D01*
X84364761Y-94712619D02*
X84269523Y-94760238D01*
X84269523Y-94760238D02*
X84221904Y-94807857D01*
X84221904Y-94807857D02*
X84174285Y-94903095D01*
X84174285Y-94903095D02*
X84174285Y-95045952D01*
X84174285Y-95045952D02*
X84221904Y-95141190D01*
X84221904Y-95141190D02*
X84269523Y-95188809D01*
X84269523Y-95188809D02*
X84364761Y-95236428D01*
X84364761Y-95236428D02*
X84745713Y-95236428D01*
X85745713Y-97347857D02*
X85698094Y-97300238D01*
X85698094Y-97300238D02*
X85602856Y-97252619D01*
X85602856Y-97252619D02*
X85364761Y-97252619D01*
X85364761Y-97252619D02*
X85269523Y-97300238D01*
X85269523Y-97300238D02*
X85221904Y-97347857D01*
X85221904Y-97347857D02*
X85174285Y-97443095D01*
X85174285Y-97443095D02*
X85174285Y-97538333D01*
X85174285Y-97538333D02*
X85221904Y-97681190D01*
X85221904Y-97681190D02*
X85793332Y-98252619D01*
X85793332Y-98252619D02*
X85174285Y-98252619D01*
X84745713Y-98252619D02*
X84745713Y-97252619D01*
X84745713Y-97252619D02*
X84364761Y-97252619D01*
X84364761Y-97252619D02*
X84269523Y-97300238D01*
X84269523Y-97300238D02*
X84221904Y-97347857D01*
X84221904Y-97347857D02*
X84174285Y-97443095D01*
X84174285Y-97443095D02*
X84174285Y-97585952D01*
X84174285Y-97585952D02*
X84221904Y-97681190D01*
X84221904Y-97681190D02*
X84269523Y-97728809D01*
X84269523Y-97728809D02*
X84364761Y-97776428D01*
X84364761Y-97776428D02*
X84745713Y-97776428D01*
X93389523Y-97347857D02*
X93341904Y-97300238D01*
X93341904Y-97300238D02*
X93246666Y-97252619D01*
X93246666Y-97252619D02*
X93008571Y-97252619D01*
X93008571Y-97252619D02*
X92913333Y-97300238D01*
X92913333Y-97300238D02*
X92865714Y-97347857D01*
X92865714Y-97347857D02*
X92818095Y-97443095D01*
X92818095Y-97443095D02*
X92818095Y-97538333D01*
X92818095Y-97538333D02*
X92865714Y-97681190D01*
X92865714Y-97681190D02*
X93437142Y-98252619D01*
X93437142Y-98252619D02*
X92818095Y-98252619D01*
X92389523Y-98252619D02*
X92389523Y-97252619D01*
X92389523Y-97252619D02*
X91818095Y-98252619D01*
X91818095Y-98252619D02*
X91818095Y-97252619D01*
X90502619Y-109696286D02*
X89502619Y-109696286D01*
X89502619Y-109696286D02*
X90502619Y-110267714D01*
X90502619Y-110267714D02*
X89502619Y-110267714D01*
D10*
%TO.C,J1*%
X89870666Y-69558020D02*
X89870666Y-70283735D01*
X89870666Y-70283735D02*
X89919047Y-70428878D01*
X89919047Y-70428878D02*
X90015809Y-70525640D01*
X90015809Y-70525640D02*
X90160952Y-70574020D01*
X90160952Y-70574020D02*
X90257714Y-70574020D01*
X88854666Y-70574020D02*
X89435238Y-70574020D01*
X89144952Y-70574020D02*
X89144952Y-69558020D01*
X89144952Y-69558020D02*
X89241714Y-69703163D01*
X89241714Y-69703163D02*
X89338476Y-69799925D01*
X89338476Y-69799925D02*
X89435238Y-69848306D01*
D11*
X85269523Y-79805952D02*
X85269523Y-80472619D01*
X85507618Y-79425000D02*
X85745713Y-80139285D01*
X85745713Y-80139285D02*
X85126666Y-80139285D01*
X84745713Y-80472619D02*
X84745713Y-79472619D01*
X84745713Y-79472619D02*
X84364761Y-79472619D01*
X84364761Y-79472619D02*
X84269523Y-79520238D01*
X84269523Y-79520238D02*
X84221904Y-79567857D01*
X84221904Y-79567857D02*
X84174285Y-79663095D01*
X84174285Y-79663095D02*
X84174285Y-79805952D01*
X84174285Y-79805952D02*
X84221904Y-79901190D01*
X84221904Y-79901190D02*
X84269523Y-79948809D01*
X84269523Y-79948809D02*
X84364761Y-79996428D01*
X84364761Y-79996428D02*
X84745713Y-79996428D01*
X85793332Y-76932619D02*
X85174285Y-76932619D01*
X85174285Y-76932619D02*
X85507618Y-77313571D01*
X85507618Y-77313571D02*
X85364761Y-77313571D01*
X85364761Y-77313571D02*
X85269523Y-77361190D01*
X85269523Y-77361190D02*
X85221904Y-77408809D01*
X85221904Y-77408809D02*
X85174285Y-77504047D01*
X85174285Y-77504047D02*
X85174285Y-77742142D01*
X85174285Y-77742142D02*
X85221904Y-77837380D01*
X85221904Y-77837380D02*
X85269523Y-77885000D01*
X85269523Y-77885000D02*
X85364761Y-77932619D01*
X85364761Y-77932619D02*
X85650475Y-77932619D01*
X85650475Y-77932619D02*
X85745713Y-77885000D01*
X85745713Y-77885000D02*
X85793332Y-77837380D01*
X84745713Y-77932619D02*
X84745713Y-76932619D01*
X84745713Y-76932619D02*
X84364761Y-76932619D01*
X84364761Y-76932619D02*
X84269523Y-76980238D01*
X84269523Y-76980238D02*
X84221904Y-77027857D01*
X84221904Y-77027857D02*
X84174285Y-77123095D01*
X84174285Y-77123095D02*
X84174285Y-77265952D01*
X84174285Y-77265952D02*
X84221904Y-77361190D01*
X84221904Y-77361190D02*
X84269523Y-77408809D01*
X84269523Y-77408809D02*
X84364761Y-77456428D01*
X84364761Y-77456428D02*
X84745713Y-77456428D01*
X85745713Y-74487857D02*
X85698094Y-74440238D01*
X85698094Y-74440238D02*
X85602856Y-74392619D01*
X85602856Y-74392619D02*
X85364761Y-74392619D01*
X85364761Y-74392619D02*
X85269523Y-74440238D01*
X85269523Y-74440238D02*
X85221904Y-74487857D01*
X85221904Y-74487857D02*
X85174285Y-74583095D01*
X85174285Y-74583095D02*
X85174285Y-74678333D01*
X85174285Y-74678333D02*
X85221904Y-74821190D01*
X85221904Y-74821190D02*
X85793332Y-75392619D01*
X85793332Y-75392619D02*
X85174285Y-75392619D01*
X84745713Y-75392619D02*
X84745713Y-74392619D01*
X84745713Y-74392619D02*
X84364761Y-74392619D01*
X84364761Y-74392619D02*
X84269523Y-74440238D01*
X84269523Y-74440238D02*
X84221904Y-74487857D01*
X84221904Y-74487857D02*
X84174285Y-74583095D01*
X84174285Y-74583095D02*
X84174285Y-74725952D01*
X84174285Y-74725952D02*
X84221904Y-74821190D01*
X84221904Y-74821190D02*
X84269523Y-74868809D01*
X84269523Y-74868809D02*
X84364761Y-74916428D01*
X84364761Y-74916428D02*
X84745713Y-74916428D01*
X90502619Y-86836286D02*
X89502619Y-86836286D01*
X89502619Y-86836286D02*
X90502619Y-87407714D01*
X90502619Y-87407714D02*
X89502619Y-87407714D01*
X87962619Y-86860095D02*
X86962619Y-86860095D01*
X86962619Y-86860095D02*
X86962619Y-87241047D01*
X86962619Y-87241047D02*
X87010238Y-87336285D01*
X87010238Y-87336285D02*
X87057857Y-87383904D01*
X87057857Y-87383904D02*
X87153095Y-87431523D01*
X87153095Y-87431523D02*
X87295952Y-87431523D01*
X87295952Y-87431523D02*
X87391190Y-87383904D01*
X87391190Y-87383904D02*
X87438809Y-87336285D01*
X87438809Y-87336285D02*
X87486428Y-87241047D01*
X87486428Y-87241047D02*
X87486428Y-86860095D01*
X85174285Y-72852619D02*
X85745713Y-72852619D01*
X85459999Y-72852619D02*
X85459999Y-71852619D01*
X85459999Y-71852619D02*
X85555237Y-71995476D01*
X85555237Y-71995476D02*
X85650475Y-72090714D01*
X85650475Y-72090714D02*
X85745713Y-72138333D01*
X84745713Y-72852619D02*
X84745713Y-71852619D01*
X84745713Y-71852619D02*
X84364761Y-71852619D01*
X84364761Y-71852619D02*
X84269523Y-71900238D01*
X84269523Y-71900238D02*
X84221904Y-71947857D01*
X84221904Y-71947857D02*
X84174285Y-72043095D01*
X84174285Y-72043095D02*
X84174285Y-72185952D01*
X84174285Y-72185952D02*
X84221904Y-72281190D01*
X84221904Y-72281190D02*
X84269523Y-72328809D01*
X84269523Y-72328809D02*
X84364761Y-72376428D01*
X84364761Y-72376428D02*
X84745713Y-72376428D01*
X85213904Y-82060238D02*
X85309142Y-82012619D01*
X85309142Y-82012619D02*
X85451999Y-82012619D01*
X85451999Y-82012619D02*
X85594856Y-82060238D01*
X85594856Y-82060238D02*
X85690094Y-82155476D01*
X85690094Y-82155476D02*
X85737713Y-82250714D01*
X85737713Y-82250714D02*
X85785332Y-82441190D01*
X85785332Y-82441190D02*
X85785332Y-82584047D01*
X85785332Y-82584047D02*
X85737713Y-82774523D01*
X85737713Y-82774523D02*
X85690094Y-82869761D01*
X85690094Y-82869761D02*
X85594856Y-82965000D01*
X85594856Y-82965000D02*
X85451999Y-83012619D01*
X85451999Y-83012619D02*
X85356761Y-83012619D01*
X85356761Y-83012619D02*
X85213904Y-82965000D01*
X85213904Y-82965000D02*
X85166285Y-82917380D01*
X85166285Y-82917380D02*
X85166285Y-82584047D01*
X85166285Y-82584047D02*
X85356761Y-82584047D01*
X84737713Y-83012619D02*
X84737713Y-82012619D01*
X84737713Y-82012619D02*
X84166285Y-83012619D01*
X84166285Y-83012619D02*
X84166285Y-82012619D01*
X83690094Y-83012619D02*
X83690094Y-82012619D01*
X83690094Y-82012619D02*
X83451999Y-82012619D01*
X83451999Y-82012619D02*
X83309142Y-82060238D01*
X83309142Y-82060238D02*
X83213904Y-82155476D01*
X83213904Y-82155476D02*
X83166285Y-82250714D01*
X83166285Y-82250714D02*
X83118666Y-82441190D01*
X83118666Y-82441190D02*
X83118666Y-82584047D01*
X83118666Y-82584047D02*
X83166285Y-82774523D01*
X83166285Y-82774523D02*
X83213904Y-82869761D01*
X83213904Y-82869761D02*
X83309142Y-82965000D01*
X83309142Y-82965000D02*
X83451999Y-83012619D01*
X83451999Y-83012619D02*
X83690094Y-83012619D01*
X85785332Y-84552619D02*
X85451999Y-85552619D01*
X85451999Y-85552619D02*
X85118666Y-84552619D01*
X84213904Y-85457380D02*
X84261523Y-85505000D01*
X84261523Y-85505000D02*
X84404380Y-85552619D01*
X84404380Y-85552619D02*
X84499618Y-85552619D01*
X84499618Y-85552619D02*
X84642475Y-85505000D01*
X84642475Y-85505000D02*
X84737713Y-85409761D01*
X84737713Y-85409761D02*
X84785332Y-85314523D01*
X84785332Y-85314523D02*
X84832951Y-85124047D01*
X84832951Y-85124047D02*
X84832951Y-84981190D01*
X84832951Y-84981190D02*
X84785332Y-84790714D01*
X84785332Y-84790714D02*
X84737713Y-84695476D01*
X84737713Y-84695476D02*
X84642475Y-84600238D01*
X84642475Y-84600238D02*
X84499618Y-84552619D01*
X84499618Y-84552619D02*
X84404380Y-84552619D01*
X84404380Y-84552619D02*
X84261523Y-84600238D01*
X84261523Y-84600238D02*
X84213904Y-84647857D01*
X83213904Y-85457380D02*
X83261523Y-85505000D01*
X83261523Y-85505000D02*
X83404380Y-85552619D01*
X83404380Y-85552619D02*
X83499618Y-85552619D01*
X83499618Y-85552619D02*
X83642475Y-85505000D01*
X83642475Y-85505000D02*
X83737713Y-85409761D01*
X83737713Y-85409761D02*
X83785332Y-85314523D01*
X83785332Y-85314523D02*
X83832951Y-85124047D01*
X83832951Y-85124047D02*
X83832951Y-84981190D01*
X83832951Y-84981190D02*
X83785332Y-84790714D01*
X83785332Y-84790714D02*
X83737713Y-84695476D01*
X83737713Y-84695476D02*
X83642475Y-84600238D01*
X83642475Y-84600238D02*
X83499618Y-84552619D01*
X83499618Y-84552619D02*
X83404380Y-84552619D01*
X83404380Y-84552619D02*
X83261523Y-84600238D01*
X83261523Y-84600238D02*
X83213904Y-84647857D01*
D12*
%TO.C,J2*%
X91310000Y-109220000D02*
X86230000Y-109220000D01*
X91310000Y-99060000D02*
X86230000Y-99060000D01*
X91310000Y-93980000D02*
X91310000Y-109220000D01*
X86230000Y-109220000D02*
X86230000Y-93980000D01*
X86230000Y-104140000D02*
X91310000Y-104140000D01*
X86230000Y-101600000D02*
X91310000Y-101600000D01*
X86230000Y-96520000D02*
X91310000Y-96520000D01*
X86230000Y-93980000D02*
X91310000Y-93980000D01*
%TO.C,J1*%
X91310000Y-86360000D02*
X86230000Y-86360000D01*
X91310000Y-76200000D02*
X86230000Y-76200000D01*
X91310000Y-71120000D02*
X91310000Y-86360000D01*
X86230000Y-86360000D02*
X86230000Y-71120000D01*
X86230000Y-81280000D02*
X91310000Y-81280000D01*
X86230000Y-78740000D02*
X91310000Y-78740000D01*
X86230000Y-73660000D02*
X91310000Y-73660000D01*
X86230000Y-71120000D02*
X91310000Y-71120000D01*
%TD*%
D13*
%TO.C,J2*%
X87500000Y-95250000D03*
D14*
X87500000Y-97790000D03*
X87500000Y-100330000D03*
X87500000Y-102870000D03*
X87500000Y-105410000D03*
X87500000Y-107950000D03*
X90040000Y-95250000D03*
X90040000Y-97790000D03*
X90040000Y-100330000D03*
X90040000Y-102870000D03*
X90040000Y-105410000D03*
X90040000Y-107950000D03*
%TD*%
D13*
%TO.C,J1*%
X87500000Y-72390000D03*
D14*
X87500000Y-74930000D03*
X87500000Y-77470000D03*
X87500000Y-80010000D03*
X87500000Y-82550000D03*
X87500000Y-85090000D03*
X90040000Y-72390000D03*
X90040000Y-74930000D03*
X90040000Y-77470000D03*
X90040000Y-80010000D03*
X90040000Y-82550000D03*
X90040000Y-85090000D03*
%TD*%
M02*
