M48
; DRILL file {KiCad 7.0.2} date Tue Feb 27 00:06:30 2024
; FORMAT={-:-/ absolute / metric / decimal}
; #@! TF.CreationDate,2024-02-27T00:06:30-06:00
; #@! TF.GenerationSoftware,Kicad,Pcbnew,7.0.2
; #@! TF.FileFunction,Plated,1,2,PTH
FMAT,2
METRIC
; #@! TA.AperFunction,Plated,PTH,ViaDrill
T1C0.300
; #@! TA.AperFunction,Plated,PTH,ViaDrill
T2C0.400
; #@! TA.AperFunction,Plated,PTH,ComponentDrill
T3C1.000
; #@! TA.AperFunction,Plated,PTH,ComponentDrill
T4C1.016
%
G90
G05
T1
X103.4Y-74.3
X103.4Y-75.7
X103.4Y-77.0
X103.4Y-78.3
X103.4Y-79.9
X103.4Y-81.7
X105.1Y-71.8
X105.1Y-73.0
X112.0Y-89.0
X112.625Y-89.603
X113.2Y-90.2
T2
X90.0Y-65.0
X90.0Y-115.0
X100.0Y-65.0
X100.0Y-95.0
X100.0Y-97.9
X100.0Y-105.0
X100.0Y-115.0
X105.8Y-89.2
X110.0Y-65.0
X110.0Y-105.0
X110.0Y-115.0
X113.899Y-90.766
X114.288Y-91.756
X115.9Y-93.6
X117.575Y-93.7
X120.0Y-105.0
X120.0Y-115.0
X130.0Y-65.0
X130.0Y-75.0
X130.0Y-115.0
X140.0Y-65.0
X140.0Y-95.0
X140.0Y-105.0
X140.0Y-115.0
T3
X101.0Y-89.96
X101.0Y-92.5
X108.0Y-60.0
X108.0Y-116.0
X114.0Y-60.0
X117.0Y-116.0
X120.0Y-60.0
X125.0Y-116.0
X126.0Y-60.0
X132.0Y-60.0
X133.0Y-116.0
X144.5Y-70.0
X144.5Y-77.0
X144.5Y-84.0
X144.5Y-91.0
X144.5Y-98.0
X144.5Y-105.5
T4
X87.5Y-72.39
X87.5Y-74.93
X87.5Y-77.47
X87.5Y-80.01
X87.5Y-82.55
X87.5Y-85.09
X87.5Y-95.25
X87.5Y-97.79
X87.5Y-100.33
X87.5Y-102.87
X87.5Y-105.41
X87.5Y-107.95
X90.04Y-72.39
X90.04Y-74.93
X90.04Y-77.47
X90.04Y-80.01
X90.04Y-82.55
X90.04Y-85.09
X90.04Y-95.25
X90.04Y-97.79
X90.04Y-100.33
X90.04Y-102.87
X90.04Y-105.41
X90.04Y-107.95
T0
M30
